<?xml version="1.0" encoding="UTF-8" standalone="no"?>
<!-- Created with Inkscape (http://www.inkscape.org/) -->

<svg
   width="1080"
   height="1080"
   viewBox="0 0 285.75 285.75001"
   version="1.1"
   id="svg1"
   inkscape:version="1.3.2 (091e20ef0f, 2023-11-25)"
   sodipodi:docname="BottleBuddyIconAllPaths_background_and_foreground.svg"
   inkscape:export-filename="BottleBuddyIconAllPaths_background_and_foreground.png"
   inkscape:export-xdpi="45.511112"
   inkscape:export-ydpi="45.511112"
   xmlns:inkscape="http://www.inkscape.org/namespaces/inkscape"
   xmlns:sodipodi="http://sodipodi.sourceforge.net/DTD/sodipodi-0.dtd"
   xmlns="http://www.w3.org/2000/svg"
   xmlns:svg="http://www.w3.org/2000/svg">
  <sodipodi:namedview
     id="namedview1"
     pagecolor="#ffffff"
     bordercolor="#000000"
     borderopacity="0.25"
     inkscape:showpageshadow="2"
     inkscape:pageopacity="0.0"
     inkscape:pagecheckerboard="0"
     inkscape:deskcolor="#d1d1d1"
     inkscape:document-units="mm"
     showguides="true"
     inkscape:zoom="1.1874146"
     inkscape:cx="316.65435"
     inkscape:cy="596.67449"
     inkscape:window-width="3840"
     inkscape:window-height="2091"
     inkscape:window-x="0"
     inkscape:window-y="0"
     inkscape:window-maximized="1"
     inkscape:current-layer="layer1"
     inkscape:export-bgcolor="#9df6b1ff">
    <sodipodi:guide
       position="73.085957,175.22978"
       orientation="1,0"
       id="guide3"
       inkscape:locked="false" />
    <sodipodi:guide
       position="218.81222,194.16974"
       orientation="1,0"
       id="guide4"
       inkscape:locked="false" />
    <sodipodi:guide
       position="22.644392,178.42502"
       orientation="0,-1"
       id="guide5"
       inkscape:locked="false" />
    <sodipodi:guide
       position="-29.636335,65.774049"
       orientation="0,-1"
       id="guide6"
       inkscape:locked="false" />
  </sodipodi:namedview>
  <defs
     id="defs1" />
  <g
     inkscape:label="Layer 1"
     inkscape:groupmode="layer"
     id="layer1">
    <rect
       style="fill:#9df6b1;fill-opacity:1;stroke-width:0.264583"
       id="rect1"
       width="285.75"
       height="285.75"
       x="-2.1316282e-14"
       y="-3.5527137e-14"
       ry="0" />
    <text
       xml:space="preserve"
       style="font-style:normal;font-variant:normal;font-weight:normal;font-stretch:normal;font-size:158.75px;font-family:Roboto;-inkscape-font-specification:Roboto;fill:#ffffff;fill-opacity:1;stroke-width:0.264583"
       x="-52.972694"
       y="114.23075"
       id="text3"><tspan
         sodipodi:role="line"
         id="tspan3"
         style="stroke-width:0.264583" /></text>
    <rect
       style="fill:#ffffff;fill-opacity:1;stroke-width:0.133856"
       id="rect2"
       width="85.915932"
       height="17.558817"
       x="99.91703"
       y="102.12343" />
    <path
       style="font-size:158.75px;font-family:Roboto;-inkscape-font-specification:Roboto;fill:#ffffff;stroke-width:0.195237"
       d="m 87.06816,186.47807 q 0,12.13603 7.259318,18.56098 7.204322,6.42497 19.193192,6.42497 h 28.04736 v -86.61791 h -26.23252 q -12.31884,0 -19.193203,5.53261 -6.929348,5.4731 -6.929348,17.54963 0,6.00852 3.189701,10.70826 3.134705,4.64024 8.63419,7.19833 -6.764366,2.02267 -10.339031,7.67425 -3.629659,5.65158 -3.629659,12.96888 z m 43.88588,-52.23249 v 27.48453 h -15.9485 q -6.81936,0 -10.99897,-3.6884 -4.179609,-3.6884 -4.179609,-10.23234 0,-13.26634 14.848599,-13.56379 z m -33.326872,52.35148 q 0,-7.25781 3.684652,-11.42214 3.62966,-4.22382 11.7139,-4.22382 h 17.92832 v 31.17293 h -17.43337 q -7.53429,0 -11.71389,-4.16432 -4.179612,-4.22382 -4.179612,-11.36265 z"
       id="text2"
       aria-label="B" />
    <path
       style="font-size:158.75px;font-family:Roboto;-inkscape-font-specification:Roboto;fill:#ffffff;stroke-width:0.195237"
       d="m 198.68184,186.47807 q 0,12.13603 -7.25931,18.56098 -7.20433,6.42497 -19.1932,6.42497 h -28.04737 v -86.61791 h 26.23254 q 12.31884,0 19.1932,5.53261 6.92935,5.4731 6.92935,17.54963 0,6.00852 -3.18971,10.70826 -3.13471,4.64024 -8.63419,7.19833 6.76437,2.02267 10.33903,7.67425 3.62966,5.65158 3.62966,12.96888 z m -43.88588,-52.23249 v 27.48453 h 15.94851 q 6.81936,0 10.99896,-3.6884 4.17962,-3.6884 4.17962,-10.23234 0,-13.26634 -14.84861,-13.56379 z m 33.32687,52.35148 q 0,-7.25781 -3.68466,-11.42214 -3.62964,-4.22382 -11.71388,-4.22382 h -17.92833 v 31.17293 h 17.43337 q 7.53429,0 11.71389,-4.16432 4.17961,-4.22382 4.17961,-11.36265 z"
       id="text2-6"
       aria-label="B" />
    <ellipse
       style="fill:#ffffff;fill-opacity:1;stroke-width:0.20306"
       id="path2"
       ry="21.633152"
       rx="17.435381"
       cy="95.919136"
       cx="142.875" />
  </g>
</svg>
